<?xml version="1.0" encoding="UTF-8" standalone="no"?>
<!DOCTYPE svg PUBLIC "-//W3C//DTD SVG 1.1//EN"
 "http://www.w3.org/Graphics/SVG/1.1/DTD/svg11.dtd">
<!-- Generated by graphviz version 12.0.0 (20240803.0821)
 -->
<!-- Pages: 1 -->
<svg width="991pt" height="209pt"
 viewBox="0.00 0.00 991.00 209.00" xmlns="http://www.w3.org/2000/svg" xmlns:xlink="http://www.w3.org/1999/xlink">
<g id="graph0" class="graph" transform="scale(1 1) rotate(0) translate(4 205)">
<polygon fill="white" stroke="none" points="-4,4 -4,-205 987,-205 987,4 -4,4"/>
<!-- coordinates -->
<g id="node1" class="node">
<title>coordinates</title>
<polygon fill="none" stroke="black" points="359.75,-126.62 359.75,-156.12 614.25,-156.12 614.25,-126.62 359.75,-126.62"/>
<text text-anchor="start" x="433.75" y="-136.93" font-family="Helvetica,sans-Serif" font-weight="bold" font-size="16.00">coordinates</text>
<polygon fill="none" stroke="black" points="359.75,-99.38 359.75,-126.62 614.25,-126.62 614.25,-99.38 359.75,-99.38"/>
<text text-anchor="start" x="364.75" y="-109.33" font-family="Helvetica,sans-Serif" text-decoration="underline" font-size="14.00">id</text>
<text text-anchor="start" x="377.5" y="-109.33" font-family="Helvetica,sans-Serif" font-size="14.00"> </text>
<text text-anchor="start" x="382" y="-109.33" font-family="Helvetica,sans-Serif" font-size="14.00"> [VARCHAR]</text>
<text text-anchor="start" x="464.5" y="-109.33" font-family="Helvetica,sans-Serif" font-size="14.00"> NOT NULL</text>
<polygon fill="none" stroke="black" points="359.75,-72.12 359.75,-99.38 614.25,-99.38 614.25,-72.12 359.75,-72.12"/>
<text text-anchor="start" x="364.75" y="-82.08" font-family="Helvetica,sans-Serif" font-size="14.00">structure_id</text>
<text text-anchor="start" x="447.25" y="-82.08" font-family="Helvetica,sans-Serif" font-size="14.00"> </text>
<text text-anchor="start" x="451.75" y="-82.08" font-family="Helvetica,sans-Serif" font-size="14.00"> [VARCHAR]</text>
<text text-anchor="start" x="534.25" y="-82.08" font-family="Helvetica,sans-Serif" font-size="14.00"> NOT NULL</text>
<polygon fill="none" stroke="black" points="359.75,-44.88 359.75,-72.12 614.25,-72.12 614.25,-44.88 359.75,-44.88"/>
<text text-anchor="start" x="364.75" y="-54.83" font-family="Helvetica,sans-Serif" font-size="14.00">xyz</text>
<text text-anchor="start" x="388.75" y="-54.83" font-family="Helvetica,sans-Serif" font-size="14.00"> </text>
<text text-anchor="start" x="393.25" y="-54.83" font-family="Helvetica,sans-Serif" font-size="14.00"> [VARCHAR]</text>
<text text-anchor="start" x="475.75" y="-54.83" font-family="Helvetica,sans-Serif" font-size="14.00"> NOT NULL</text>
</g>
<!-- property -->
<g id="node2" class="node">
<title>property</title>
<polygon fill="none" stroke="black" points="703.25,-140.25 703.25,-169.75 975,-169.75 975,-140.25 703.25,-140.25"/>
<text text-anchor="start" x="799.75" y="-150.55" font-family="Helvetica,sans-Serif" font-weight="bold" font-size="16.00">property</text>
<polygon fill="none" stroke="black" points="703.25,-113 703.25,-140.25 975,-140.25 975,-113 703.25,-113"/>
<text text-anchor="start" x="708.25" y="-122.95" font-family="Helvetica,sans-Serif" text-decoration="underline" font-size="14.00">id</text>
<text text-anchor="start" x="721" y="-122.95" font-family="Helvetica,sans-Serif" font-size="14.00"> </text>
<text text-anchor="start" x="725.5" y="-122.95" font-family="Helvetica,sans-Serif" font-size="14.00"> [INTEGER]</text>
<text text-anchor="start" x="802" y="-122.95" font-family="Helvetica,sans-Serif" font-size="14.00"> NOT NULL</text>
<polygon fill="none" stroke="black" points="703.25,-85.75 703.25,-113 975,-113 975,-85.75 703.25,-85.75"/>
<text text-anchor="start" x="708.25" y="-95.7" font-family="Helvetica,sans-Serif" font-size="14.00">coordinates_id</text>
<text text-anchor="start" x="808" y="-95.7" font-family="Helvetica,sans-Serif" font-size="14.00"> </text>
<text text-anchor="start" x="812.5" y="-95.7" font-family="Helvetica,sans-Serif" font-size="14.00"> [VARCHAR]</text>
<text text-anchor="start" x="895" y="-95.7" font-family="Helvetica,sans-Serif" font-size="14.00"> NOT NULL</text>
<polygon fill="none" stroke="black" points="703.25,-58.5 703.25,-85.75 975,-85.75 975,-58.5 703.25,-58.5"/>
<text text-anchor="start" x="708.25" y="-68.45" font-family="Helvetica,sans-Serif" font-size="14.00">property</text>
<text text-anchor="start" x="767.5" y="-68.45" font-family="Helvetica,sans-Serif" font-size="14.00"> </text>
<text text-anchor="start" x="772" y="-68.45" font-family="Helvetica,sans-Serif" font-size="14.00"> [VARCHAR]</text>
<text text-anchor="start" x="854.5" y="-68.45" font-family="Helvetica,sans-Serif" font-size="14.00"> NOT NULL</text>
<polygon fill="none" stroke="black" points="703.25,-31.25 703.25,-58.5 975,-58.5 975,-31.25 703.25,-31.25"/>
<text text-anchor="start" x="708.25" y="-41.2" font-family="Helvetica,sans-Serif" font-size="14.00">value</text>
<text text-anchor="start" x="745.75" y="-41.2" font-family="Helvetica,sans-Serif" font-size="14.00"> </text>
<text text-anchor="start" x="750.25" y="-41.2" font-family="Helvetica,sans-Serif" font-size="14.00"> [FLOAT]</text>
<text text-anchor="start" x="808" y="-41.2" font-family="Helvetica,sans-Serif" font-size="14.00"> NOT NULL</text>
</g>
<!-- coordinates&#45;&#45;property -->
<g id="edge1" class="edge">
<title>coordinates&#45;&#45;property</title>
<path fill="none" stroke="#7f7f7f" stroke-dasharray="5,2" d="M621.87,-100.5C645.9,-100.5 671.03,-100.5 695.31,-100.5"/>
<text text-anchor="start" x="665.31" y="-87.2" font-family="Times,serif" font-size="14.00">0..N</text>
<text text-anchor="start" x="621.87" y="-100.14" font-family="Times,serif" font-size="14.00">1</text>
</g>
<!-- structure -->
<g id="node3" class="node">
<title>structure</title>
<polygon fill="none" stroke="black" points="8,-167.5 8,-197 270.75,-197 270.75,-167.5 8,-167.5"/>
<text text-anchor="start" x="97.38" y="-177.8" font-family="Helvetica,sans-Serif" font-weight="bold" font-size="16.00">structure</text>
<polygon fill="none" stroke="black" points="8,-140.25 8,-167.5 270.75,-167.5 270.75,-140.25 8,-140.25"/>
<text text-anchor="start" x="13" y="-150.2" font-family="Helvetica,sans-Serif" text-decoration="underline" font-size="14.00">id</text>
<text text-anchor="start" x="25.75" y="-150.2" font-family="Helvetica,sans-Serif" font-size="14.00"> </text>
<text text-anchor="start" x="30.25" y="-150.2" font-family="Helvetica,sans-Serif" font-size="14.00"> [VARCHAR]</text>
<text text-anchor="start" x="112.75" y="-150.2" font-family="Helvetica,sans-Serif" font-size="14.00"> NOT NULL</text>
<polygon fill="none" stroke="black" points="8,-113 8,-140.25 270.75,-140.25 270.75,-113 8,-113"/>
<text text-anchor="start" x="13" y="-122.95" font-family="Helvetica,sans-Serif" font-size="14.00">MND</text>
<text text-anchor="start" x="46" y="-122.95" font-family="Helvetica,sans-Serif" font-size="14.00"> </text>
<text text-anchor="start" x="50.5" y="-122.95" font-family="Helvetica,sans-Serif" font-size="14.00"> [INTEGER]</text>
<text text-anchor="start" x="127" y="-122.95" font-family="Helvetica,sans-Serif" font-size="14.00"> NOT NULL</text>
<polygon fill="none" stroke="black" points="8,-85.75 8,-113 270.75,-113 270.75,-85.75 8,-85.75"/>
<text text-anchor="start" x="13" y="-95.7" font-family="Helvetica,sans-Serif" font-size="14.00">S</text>
<text text-anchor="start" x="22" y="-95.7" font-family="Helvetica,sans-Serif" font-size="14.00"> </text>
<text text-anchor="start" x="26.5" y="-95.7" font-family="Helvetica,sans-Serif" font-size="14.00"> [INTEGER]</text>
<text text-anchor="start" x="103" y="-95.7" font-family="Helvetica,sans-Serif" font-size="14.00"> NOT NULL</text>
<polygon fill="none" stroke="black" points="8,-58.5 8,-85.75 270.75,-85.75 270.75,-58.5 8,-58.5"/>
<text text-anchor="start" x="13" y="-68.45" font-family="Helvetica,sans-Serif" font-size="14.00">num_atoms</text>
<text text-anchor="start" x="94" y="-68.45" font-family="Helvetica,sans-Serif" font-size="14.00"> </text>
<text text-anchor="start" x="98.5" y="-68.45" font-family="Helvetica,sans-Serif" font-size="14.00"> [INTEGER]</text>
<text text-anchor="start" x="175" y="-68.45" font-family="Helvetica,sans-Serif" font-size="14.00"> NOT NULL</text>
<polygon fill="none" stroke="black" points="8,-31.25 8,-58.5 270.75,-58.5 270.75,-31.25 8,-31.25"/>
<text text-anchor="start" x="13" y="-41.2" font-family="Helvetica,sans-Serif" font-size="14.00">q</text>
<text text-anchor="start" x="22" y="-41.2" font-family="Helvetica,sans-Serif" font-size="14.00"> </text>
<text text-anchor="start" x="26.5" y="-41.2" font-family="Helvetica,sans-Serif" font-size="14.00"> [INTEGER]</text>
<text text-anchor="start" x="103" y="-41.2" font-family="Helvetica,sans-Serif" font-size="14.00"> NOT NULL</text>
<polygon fill="none" stroke="black" points="8,-4 8,-31.25 270.75,-31.25 270.75,-4 8,-4"/>
<text text-anchor="start" x="13" y="-13.95" font-family="Helvetica,sans-Serif" font-size="14.00">stoichometry</text>
<text text-anchor="start" x="103.75" y="-13.95" font-family="Helvetica,sans-Serif" font-size="14.00"> </text>
<text text-anchor="start" x="108.25" y="-13.95" font-family="Helvetica,sans-Serif" font-size="14.00"> [VARCHAR]</text>
<text text-anchor="start" x="190.75" y="-13.95" font-family="Helvetica,sans-Serif" font-size="14.00"> NOT NULL</text>
</g>
<!-- structure&#45;&#45;coordinates -->
<g id="edge2" class="edge">
<title>structure&#45;&#45;coordinates</title>
<path fill="none" stroke="#7f7f7f" stroke-dasharray="5,2" d="M278.47,-100.5C302.63,-100.5 327.73,-100.5 351.79,-100.5"/>
<text text-anchor="start" x="321.79" y="-87.2" font-family="Times,serif" font-size="14.00">0..N</text>
<text text-anchor="start" x="278.47" y="-87.2" font-family="Times,serif" font-size="14.00">1</text>
</g>
</g>
</svg>
